<svg xmlns="http://www.w3.org/2000/svg" viewBox="0 0 714.331 714.331">
<path d="m 629.985,515.61999 -0.054,-314.998 c -116.574,0 -218.254,63.42 -272.722,157.549 108.751,0.107 214.496,56.484 272.774,157.44 z" fill="#ffed00" />
<path d="m 357.228,673.15299 272.757,-157.534 c -58.287,-100.956 -164.049,-157.302 -272.809,-157.409 54.283,94.236 58.327,213.994 0.04,314.946 z" fill="#008026" />
<path d="m 84.419,515.63699 272.809,157.447 c 58.287,-100.956 54.202,-220.713 -0.081,-314.963 -54.468,94.129 -156.16,157.509 -272.74,157.509 z" fill="#004dff" />
<path d="m 84.35,200.72599 0.054,314.981 c 116.574,0 218.254,-63.42 272.722,-157.549 -108.751,-0.107 -214.496,-56.484 -272.774,-157.44 z" fill="#750787" />
<path d="M 357.142,43.261001 84.385,200.80299 c 58.287,100.956 164.049,157.302 272.809,157.409 -54.283,-94.236 -58.327,-213.994 -0.04,-314.945989 z" fill="#e40303" />
<path d="M 629.881,200.62199 357.072,43.175001 c -58.287,100.955989 -54.202,220.712989 0.081,314.962989 54.468,-94.129 156.148,-157.516 272.722,-157.516 z" fill="#ff8c00" />
</svg>