<svg xmlns="http://www.w3.org/2000/svg" viewBox="0 0 629.981 629.981"><path d="m587.808 472.445l-.054-314.998c-116.574 0-218.254 63.42-272.722 157.549 108.751.107 214.496 56.484 272.774 157.44z" fill="#ffed00"/><path d="m315.051 629.978l272.757-157.534c-58.287-100.956-164.049-157.302-272.809-157.409 54.283 94.236 58.327 213.994.04 314.946z" fill="#008026"/><path d="m42.242 472.462l272.809 157.447c58.287-100.956 54.202-220.713-.081-314.963-54.468 94.129-156.16 157.509-272.74 157.509z" fill="#004dff"/><path d="m42.173 157.551l.054 314.981c116.574 0 218.254-63.42 272.722-157.549-108.751-.107-214.496-56.484-272.774-157.44z" fill="#750787"/><path d="m314.965.086l-272.757 157.542c58.287 100.956 164.049 157.302 272.809 157.409-54.283-94.236-58.327-213.994-.04-314.946z" fill="#e40303"/><path d="m587.704 157.447l-272.809-157.447c-58.287 100.956-54.202 220.713.081 314.963 54.468-94.129 156.148-157.516 272.722-157.516z" fill="#ff8c00"/></svg>