<?xml version="1.0" encoding="UTF-8"?><svg xmlns="http://www.w3.org/2000/svg" viewBox="0 0 53.16 53.16" version="1.2" baseProfile="tiny-ps"><title>C. David Maxey, M.A.</title><path fill="#1a237e" stroke="#fff" d="M.501 26.581c0 14.25 11.676 25.803 26.08 25.803 14.403 0 26.079-11.553 26.079-25.803C52.66 12.329 40.983.776 26.58.776 12.179.776.5 12.329.5 26.581"></path><path fill="#fff" d="M22.355 10.323c.133.361.248.71.343 1.048 1.207 4.193.711 6.52.711 6.52-.114.673-.64 1.893-.336 2.707.654 1.76 2.3 4.39 3.4 5.698 1.518 1.806.615 2.676.615 2.676-.876.738-1.76.87-1.76.87-1.518.465-.553 1.925-.553 1.925 1.26 1.755-1.245 2.333-1.245 2.333 1.66 1.194.077 2.326.077 2.326-.922.432-1.45 2.033-1.468 2.878-.007.35-.032.216-.102.52-.8 3.356-4.264 1.767-4.264 1.767-2.675-.832-4.778-.45-6.17.096-1.652.652-2.165 2.455-2.22 4.275a25.967 25.967 0 01-2.945-3c-.8-4.616-.518-11.63 3.178-21.884l.253-.847c1.752-5.877.97-9.857-1.288-12.321a26.107 26.107 0 018.375-5.32c2.89 2.32 4.53 5.268 5.4 7.733m25.47 6.081s-.349-.205-.747-.186c0 0-3.65-.107-3.784 6.342-.106 5.115-3.37 5.698-4.718 5.719V21.62c0-4.71 2.469-4.024 2.469-4.024v-.738h-7.784v.738s2.467-.685 2.467 4.024v6.659c-1.172.03-4.82-.308-4.932-5.719-.134-6.45-3.785-6.342-3.785-6.342-.398-.02-.746.186-.746.186-.354.266.368.664.786 1.026.316.273.572.789.675 1.193.373 1.463.392 3.71.392 3.71.132 2.4 1.058 4.009 1.058 4.009 1.992 3.074 5.439 3.232 6.552 3.196v5.302c0 4.71-2.467 4.024-2.467 4.024v.739h7.784v-.739s-2.468.686-2.468-4.024v-5.297c1.291.004 4.46-.304 6.336-3.2 0 0 .927-1.61 1.06-4.008 0 0 .018-2.248.39-3.711.105-.404.36-.92.676-1.193.418-.362 1.14-.76.786-1.026"></path></svg>