<svg xmlns="http://www.w3.org/2000/svg" viewBox="0 0 100 176.73346">
<path d="M14.155 17.632c-7.686 8.202-12.5 20.151-12.313 31.39.39 23.486 10.977 32.377 27.906 64.7 6.098 14.224 12.463 29.274 18.517 54.201.841 3.677 1.662 7.092 2.041 7.388.379.296 1.2-3.131 2.041-6.808 6.053-24.927 12.418-39.966 18.517-54.19 16.929-32.324 27.516-41.215 27.906-64.701.187-11.239-4.639-23.199-12.324-31.402-8.779-9.37-22.022-16.304-36.139-16.594-14.118-.29-27.372 6.644-36.151 16.014z" fill="#c2abdd" stroke="#4a1c8a" stroke-width="3"/>
<path d="M85.122 69.452l-.007-40.32c-14.921 0-27.937 8.118-34.908 20.166 13.92.014 27.455 7.23 34.915 20.152z" fill="#ffed00"/>
<path d="M50.21 89.616l34.913-20.164c-7.461-12.922-20.998-20.135-34.92-20.148 6.948 12.062 7.466 27.391.005 40.313z" fill="#008026"/>
<path d="M15.29 69.454l34.92 20.153c7.461-12.922 6.938-28.251-.01-40.315-6.972 12.049-19.988 20.161-34.911 20.161z" fill="#004dff"/>
<path d="M15.281 29.146l.007 40.318c14.921 0 27.937-8.118 34.908-20.166-13.92-.014-27.455-7.23-34.915-20.152z" fill="#750787"/>
<path d="M50.199 8.99l-34.913 20.165c7.461 12.922 20.998 20.135 34.92 20.148-6.948-12.062-7.466-27.391-.005-40.313z" fill="#e40303"/>
<path d="M85.109 29.132l-34.92-20.153c-7.461 12.922-6.938 28.251.01 40.315 6.972-12.049 19.987-20.162 34.908-20.162z" fill="#ff8c00"/>
</svg>