<?xml version="1.0" encoding="UTF-8" standalone="no"?>
<!-- Created with Inkscape (http://www.inkscape.org/) -->

<svg
   xmlns:dc="http://purl.org/dc/elements/1.1/"
   xmlns:cc="http://creativecommons.org/ns#"
   xmlns:rdf="http://www.w3.org/1999/02/22-rdf-syntax-ns#"
   xmlns:svg="http://www.w3.org/2000/svg"
   xmlns="http://www.w3.org/2000/svg"
   xmlns:sodipodi="http://sodipodi.sourceforge.net/DTD/sodipodi-0.dtd"
   xmlns:inkscape="http://www.inkscape.org/namespaces/inkscape"
   width="26.458332mm"
   height="46.760727mm"
   viewBox="0 0 93.749995 165.68761"
   id="svg3455"
   version="1.1"
   inkscape:version="0.92.2 5c3e80d, 2017-08-06"
   sodipodi:docname="map-pin.svg"
   inkscape:export-filename="/Users/cdavidmaxey/Downloads/Map-Pin.png"
   inkscape:export-xdpi="46.080002"
   inkscape:export-ydpi="46.080002">
  <defs
     id="defs3457" />
  <sodipodi:namedview
     id="base"
     pagecolor="#ffffff"
     bordercolor="#666666"
     borderopacity="1.0"
     inkscape:pageopacity="0.0"
     inkscape:pageshadow="2"
     inkscape:zoom="0.76133494"
     inkscape:cx="-99.183167"
     inkscape:cy="119.79385"
     inkscape:document-units="px"
     inkscape:current-layer="g3477"
     showgrid="false"
     inkscape:window-width="1280"
     inkscape:window-height="708"
     inkscape:window-x="0"
     inkscape:window-y="0"
     inkscape:window-maximized="1"
     fit-margin-top="0"
     fit-margin-left="0"
     fit-margin-right="0"
     fit-margin-bottom="0" />
  <metadata
     id="metadata3460">
    <rdf:RDF>
      <cc:Work
         rdf:about="">
        <dc:format>image/svg+xml</dc:format>
        <dc:type
           rdf:resource="http://purl.org/dc/dcmitype/StillImage" />
        <dc:title></dc:title>
      </cc:Work>
    </rdf:RDF>
  </metadata>
  <g
     inkscape:label="Layer 1"
     inkscape:groupmode="layer"
     id="layer1"
     transform="translate(-767.72092,-143.591)">
    <g
       id="g3477"
       transform="matrix(1.1855854,0,0,1.1855854,-151.17715,-57.3976)">
      <path
         sodipodi:nodetypes="sscccccsscs"
         inkscape:connector-curvature="0"
         id="path4337-3"
         d="m 786.0179,183.41528 c -6.07553,6.48409 -9.88103,15.9296 -9.73327,24.81408 0.30858,18.56594 8.67718,25.5941 22.06012,51.14662 4.82079,11.24413 9.85225,23.14184 14.63759,42.84701 0.66503,2.90666 1.3136,5.60654 1.61362,5.84045 0.29987,0.2342 0.94858,-2.47539 1.61363,-5.38204 4.78532,-19.70517 9.81679,-31.59342 14.63757,-42.83755 13.38294,-25.55252 21.75146,-32.58073 22.06012,-51.14666 0.14776,-8.88448 -3.66715,-18.33941 -9.74268,-24.8235 -6.94027,-7.407 -17.40834,-12.8887 -28.56864,-13.11792 -11.16029,-0.22938 -21.63779,5.25252 -28.57806,12.65951 z"
         style="display:inline;opacity:1;fill:#c2abdd;fill-opacity:1;stroke:#4a1c8a;stroke-width:2.44380164;stroke-miterlimit:4;stroke-dasharray:none;stroke-opacity:1" />
      <g
         id="g94"
         transform="matrix(0.10144584,0,0,0.10144584,782.6415,176.57453)">
        <path
           id="path68"
           d="m 587.808,472.445 -0.054,-314.998 c -116.574,0 -218.254,63.42 -272.722,157.549 108.751,0.107 214.496,56.484 272.774,157.44 z"
           inkscape:connector-curvature="0"
           style="fill:#ffed00" />
        <path
           id="path70"
           d="M 315.051,629.978 587.808,472.444 C 529.521,371.488 423.759,315.142 314.999,315.035 c 54.283,94.236 58.327,213.994 0.04,314.946 z"
           inkscape:connector-curvature="0"
           style="fill:#008026" />
        <path
           id="path72"
           d="M 42.242,472.462 315.051,629.909 C 373.338,528.953 369.253,409.196 314.97,314.946 260.502,409.075 158.81,472.455 42.23,472.455 Z"
           inkscape:connector-curvature="0"
           style="fill:#004dff" />
        <path
           id="path74"
           d="m 42.173,157.551 0.054,314.981 c 116.574,0 218.254,-63.42 272.722,-157.549 C 206.198,314.876 100.453,258.499 42.175,157.543 Z"
           inkscape:connector-curvature="0"
           style="fill:#750787" />
        <path
           id="path76"
           d="M 314.965,0.086 42.208,157.628 C 100.495,258.584 206.257,314.93 315.017,315.037 260.734,220.801 256.69,101.043 314.977,0.091 Z"
           inkscape:connector-curvature="0"
           style="fill:#e40303" />
        <path
           id="path78"
           d="M 587.704,157.447 314.895,0 c -58.287,100.956 -54.202,220.713 0.081,314.963 54.468,-94.129 156.148,-157.516 272.722,-157.516 z"
           inkscape:connector-curvature="0"
           style="fill:#ff8c00" />
      </g>
    </g>
  </g>
</svg>
