<svg xmlns="http://www.w3.org/2000/svg" viewBox="0 0 100 176.733"><path stroke-width="3" stroke="#1a237e" fill="#1a237e" d="M14.155 17.632c-7.686 8.202-12.5 20.151-12.313 31.39.39 23.486 10.977 32.377 27.906 64.7 6.098 14.224 12.463 29.274 18.517 54.201.841 3.677 1.662 7.092 2.041 7.388.379.296 1.2-3.131 2.041-6.808 6.053-24.927 12.418-39.966 18.517-54.19C87.793 81.989 98.38 73.098 98.77 49.612c.187-11.239-4.639-23.199-12.324-31.402C77.667 8.84 64.424 1.906 50.307 1.616 36.189 1.326 22.935 8.26 14.156 17.63z"/><path d="M86.305 28.933s-1.172-.69-2.512-.626c0 0-12.293-.36-12.744 21.359-.357 17.226-11.35 19.19-15.89 19.26V46.5c0-15.863 8.312-13.553 8.312-13.553v-2.485H37.256v2.485s8.309-2.306 8.309 13.553v22.426c-3.948.101-16.234-1.037-16.61-19.26-.452-21.723-12.748-21.36-12.748-21.36-1.34-.067-2.512.627-2.512.627-1.193.896 1.239 2.236 2.647 3.455 1.064.92 1.926 2.658 2.273 4.018 1.256 4.927 1.32 12.495 1.32 12.495.445 8.083 3.563 13.502 3.563 13.502 6.71 10.353 18.318 10.885 22.067 10.763v17.857c0 15.862-8.309 13.552-8.309 13.552v2.489h26.215v-2.489s-8.311 2.31-8.311-13.552v-17.84c4.35.011 15.02-1.024 21.342-10.777 0 0 3.118-5.422 3.57-13.498 0 0 .057-7.571 1.313-12.498.35-1.361 1.212-3.099 2.273-4.018 1.408-1.22 3.84-2.56 2.647-3.456" fill="#fff"/></svg>