<svg version="1" xmlns="http://www.w3.org/2000/svg" width="933.333" height="933.333" viewBox="0 0 700.000000 700.000000"><path d="M337.5 49.6c-6 3.6-11.9 6.9-13 7.4-1.1.6-2.7 1.4-3.5 2-3.3 2.1-59.1 34.4-64.8 37.5-2 1.1-3.8 2.3-4 2.7-.2.5-.7.8-1.2.8s-4.8 2.3-9.7 5.1c-4.8 2.9-10.7 6.2-13 7.5-2.3 1.3-9.3 5.4-15.5 9-6.2 3.7-13.3 7.8-15.8 9.2-2.5 1.4-8.5 4.8-13.5 7.7-4.9 2.9-10.6 6.2-12.5 7.3-1.9 1.1-10.5 6-19 10.9-8.5 5-21.6 12.5-29 16.8-28 16.1-39.5 22.8-39.9 23.2-.6.4-.5 308.3 0 308.7.2.2 8.1 4.7 17.4 10.1 9.4 5.4 20.8 12.1 25.5 14.8 4.7 2.7 10.5 6.1 13 7.5 2.5 1.4 15.8 9 29.5 17 13.8 8 26.4 15.3 28.2 16.3 4.7 2.6 42.3 24.4 46.3 26.8 1.9 1.1 4.9 2.8 6.5 3.7 1.7.9 15.8 9.1 31.5 18.2s30.1 17.4 32 18.4c1.9 1.1 10.8 6.2 19.6 11.4 9.4 5.4 17 9.2 18.1 9 1.1-.2 7.7-3.8 14.9-7.9 40.1-23.2 59.2-34.2 61.9-35.8 1.7-1 5.3-3 8-4.4 2.8-1.5 5.7-3.3 6.6-4.1.8-.8 1.8-1.4 2.1-1.4.4 0 3.9-1.9 8-4.3 4-2.4 9.3-5.5 11.8-6.9 7.6-4.4 22.8-13.1 39.5-22.8 8.8-5.1 17.4-10 19-11 1.7-.9 16.1-9.3 32-18.5 16-9.2 30.6-17.6 32.5-18.7 10.5-6 29.6-17.1 29.9-17.5.4-.2.5-294.8.2-306.9-.1-2.1-1.8-3.1-46-28.4-5.7-3.3-30.5-17.6-33.9-19.7-2-1.1-4.8-2.7-6.2-3.5-1.4-.8-9.9-5.7-19-11-9.1-5.2-18.5-10.6-21-12-2.5-1.4-14.4-8.3-26.5-15.3-43.8-25.4-55.1-31.9-58.7-33.9-2-1.2-15.2-8.7-29.3-16.9-14.1-8.1-26.1-14.7-26.8-14.6-.7 0-6.1 3-12.2 6.5z"/></svg>