<?xml version="1.0" standalone="no"?>
<!DOCTYPE svg PUBLIC "-//W3C//DTD SVG 20010904//EN"
 "http://www.w3.org/TR/2001/REC-SVG-20010904/DTD/svg10.dtd">
<svg version="1.0" xmlns="http://www.w3.org/2000/svg"
 width="700.000000pt" height="700.000000pt" viewBox="0 0 700.000000 700.000000"
 preserveAspectRatio="xMidYMid meet">
<metadata>
Created by potrace 1.11, written by Peter Selinger 2001-2013
</metadata>
<g transform="translate(0.000000,700.000000) scale(0.100000,-0.100000)"
fill="#000000" stroke="none">
<path d="M3477 6964 c-1 -1 -69 -5 -152 -8 -82 -3 -161 -8 -175 -10 -14 -3
-47 -7 -75 -10 -105 -12 -143 -18 -245 -37 -195 -38 -390 -93 -563 -159 l-59
-22 39 -31 c74 -59 260 -255 330 -348 188 -251 330 -537 409 -827 36 -131 69
-284 78 -362 4 -25 9 -65 12 -90 10 -73 12 -305 3 -357 -9 -57 -13 -74 -39
-178 -28 -111 -27 -186 4 -260 87 -208 258 -493 424 -705 94 -121 133 -197
136 -270 2 -32 -17 -86 -37 -108 -35 -38 -126 -88 -213 -116 -85 -28 -114 -51
-131 -101 -13 -37 7 -123 38 -167 12 -16 27 -49 35 -73 28 -93 -25 -166 -160
-220 l-39 -15 28 -28 c106 -104 85 -204 -68 -316 -59 -43 -127 -177 -142 -277
-3 -24 -9 -60 -11 -79 -15 -101 -56 -200 -109 -258 -68 -76 -214 -116 -330
-89 -22 5 -48 10 -59 13 -10 2 -46 13 -79 24 -174 61 -438 84 -605 54 -106
-19 -235 -59 -287 -90 -117 -68 -209 -228 -230 -399 -18 -149 -18 -145 12
-171 46 -41 253 -197 322 -243 396 -268 911 -472 1380 -547 18 -3 41 -7 50 -9
9 -1 48 -6 86 -10 39 -4 79 -9 90 -11 114 -21 517 -21 710 0 65 7 170 20 175
21 3 1 28 5 55 10 62 9 69 11 125 24 25 5 57 12 71 15 97 17 403 111 524 161
22 9 53 22 70 28 78 32 352 173 449 231 336 204 668 493 899 781 26 33 54 67
60 75 93 113 265 386 346 548 144 287 267 649 315 932 36 204 48 351 50 575 1
214 -8 423 -19 458 -2 6 -6 35 -9 62 -5 43 -21 136 -41 240 -3 17 -13 57 -22
90 -8 33 -17 67 -19 75 -133 538 -454 1101 -870 1526 -496 506 -1102 837
-1804 985 -88 18 -156 30 -270 44 -104 12 -131 15 -250 21 -185 9 -211 10
-213 8z m229 -2114 c121 -59 216 -171 274 -321 55 -143 74 -251 85 -489 6
-119 8 -137 26 -230 41 -218 164 -394 329 -473 82 -39 189 -65 260 -63 l45 1
0 505 c0 590 -4 638 -65 766 -51 105 -118 157 -207 158 -29 1 -53 6 -54 11 -1
11 -1 77 0 85 1 3 235 5 521 5 l520 0 0 -47 0 -48 -43 0 c-98 0 -191 -80 -236
-201 -46 -124 -50 -183 -51 -728 l0 -514 52 6 c293 35 483 212 551 513 18 76
23 129 32 299 17 317 89 531 224 666 97 97 219 150 313 135 100 -16 102 -46
11 -121 -137 -113 -168 -215 -188 -620 -5 -105 -13 -197 -21 -240 -2 -11 -6
-32 -9 -46 -24 -133 -95 -304 -159 -388 -177 -230 -451 -358 -789 -370 -18 -1
-18 -20 -14 -448 2 -247 7 -461 11 -478 16 -71 39 -142 57 -178 48 -93 134
-152 220 -150 l39 1 0 -49 0 -49 -522 2 -522 3 -1 47 0 46 46 0 c143 2 235
120 275 354 4 18 8 228 10 466 4 406 3 432 -14 433 -88 3 -171 9 -192 14 -14
3 -41 8 -60 11 -62 10 -213 64 -280 101 -173 94 -324 254 -378 402 -59 162
-89 307 -97 476 -11 226 -25 352 -50 450 -27 103 -51 138 -159 229 -54 45 -56
49 -43 70 31 46 155 45 253 -4z"/>
<path d="M973 5895 c-293 -303 -545 -683 -698 -1050 -21 -49 -43 -104 -51
-120 -32 -73 -124 -379 -140 -465 -3 -14 -11 -56 -19 -95 -48 -241 -60 -381
-60 -670 1 -191 8 -339 19 -402 2 -10 7 -45 10 -78 4 -33 9 -67 11 -75 3 -8 7
-31 9 -50 2 -20 11 -65 20 -102 8 -36 17 -77 20 -89 12 -67 79 -282 129 -419
64 -174 171 -391 280 -570 82 -135 268 -391 289 -399 6 -2 8 1 5 6 -3 5 -9 32
-12 59 -3 27 -8 58 -10 69 -20 97 -28 661 -12 835 15 167 31 304 41 356 2 10
7 39 10 64 3 25 8 55 10 66 2 12 7 37 10 55 23 146 123 574 180 774 42 146
111 360 171 535 91 263 134 431 180 708 8 50 19 212 19 292 0 242 -42 446
-130 624 -41 83 -113 192 -149 226 l-26 24 -106 -109z"/>
</g>
</svg>
